<svg height="494" width="720" xmlns="http://www.w3.org/2000/svg">
<rect height="494" fill="#555" width="720"></rect>
<text fill="#7f7" font-family="Courier New" font-size="12" xml:space="preserve">
<tspan x="10" y="26">11 megabytes installed</tspan>
<tspan x="10" y="42"></tspan>
<tspan x="10" y="58">node_modules</tspan>
<tspan x="10" y="74">└─┬ csscomb@4.0.1 </tspan>
<tspan x="10" y="90">  ├─┬ babel-polyfill@6.23.0 </tspan>
<tspan x="10" y="106">  │ ├── babel-runtime@6.23.0 </tspan>
<tspan x="10" y="122">  │ ├── core-js@2.4.1 </tspan>
<tspan x="10" y="138">  │ └── regenerator-runtime@0.10.3 </tspan>
<tspan x="10" y="154">  ├─┬ glob@7.1.1 </tspan>
<tspan x="10" y="170">  │ ├── fs.realpath@1.0.0 </tspan>
<tspan x="10" y="186">  │ ├─┬ inflight@1.0.6 </tspan>
<tspan x="10" y="202">  │ │ └── wrappy@1.0.2 </tspan>
<tspan x="10" y="218">  │ ├── inherits@2.0.3 </tspan>
<tspan x="10" y="234">  │ ├── once@1.4.0 </tspan>
<tspan x="10" y="250">  │ └── path-is-absolute@1.0.1 </tspan>
<tspan x="10" y="266">  ├── gonzales-pe@3.4.7 </tspan>
<tspan x="10" y="282">  ├─┬ minimatch@3.0.2 </tspan>
<tspan x="10" y="298">  │ └─┬ brace-expansion@1.1.7 </tspan>
<tspan x="10" y="314">  │   ├── balanced-match@0.4.2 </tspan>
<tspan x="10" y="330">  │   └── concat-map@0.0.1 </tspan>
<tspan x="10" y="346">  ├── minimist@1.1.3 </tspan>
<tspan x="10" y="362">  ├── vow@0.4.4 </tspan>
<tspan x="10" y="378">  └─┬ vow-fs@0.3.2 </tspan>
<tspan x="10" y="394">    ├─┬ glob@3.2.8 </tspan>
<tspan x="10" y="410">    │ └─┬ minimatch@0.2.14 </tspan>
<tspan x="10" y="426">    │   ├── lru-cache@2.7.3 </tspan>
<tspan x="10" y="442">    │   └── sigmund@1.0.1 </tspan>
<tspan x="10" y="458">    ├── node-uuid@1.4.0 </tspan>
<tspan x="10" y="474">    └── vow-queue@0.3.1</tspan>
</text>
</svg>
